<svg width="168" height="64" viewBox="0 0 168 64" fill="none" xmlns="http://www.w3.org/2000/svg">
<path d="M48.715 16.1361V29.1191H45.5137V13.4004H52.9962V16.1361H48.715Z" fill="#224761"/>
<path d="M44.4083 13.4004H38.5605V16.1361H44.4083V13.4004Z" fill="#224761"/>
<path d="M54.9043 29.1191V13.4004H83.9892V16.1361H58.1013V19.8253H82.8623V22.561H58.1013V26.3833H83.9892V29.1191H54.9043Z" fill="#224761"/>
<path d="M86.1152 29.1191V13.4004H89.3165V26.3833H96.7478V29.1191H86.1152Z" fill="#224761"/>
<path d="M102.207 13.4004H99.0098V29.1191H102.207V13.4004Z" fill="#224761"/>
<path d="M134.084 16.1361H126.201V20.2891H134.084C135.634 20.2891 136.411 19.5977 136.411 18.2148C136.411 16.8319 135.638 16.1404 134.084 16.1404M136.573 29.1191L133.376 22.8488H126.205V29.1191H123.008V13.4004H134.298C135.924 13.4004 137.23 13.8728 138.212 14.8134C139.147 15.711 139.616 16.8448 139.616 18.2148C139.616 19.2584 139.317 20.156 138.72 20.9076C138.182 21.569 137.486 22.05 136.624 22.342L140.282 29.1191H136.577H136.573Z" fill="#224761"/>
<path d="M38.8731 42.0929C38.8731 44.2274 38.3524 45.8251 37.3066 46.8859C36.0773 48.0798 34.5364 48.6725 32.6797 48.6725C30.9296 48.6725 29.457 48.1013 28.2619 46.9503C27.5533 46.276 27.1094 45.4858 26.9259 44.5882C26.7423 43.7035 26.6484 42.4022 26.6484 40.68C26.6484 38.9578 26.7423 37.6565 26.9259 36.7718C27.1094 35.8742 27.5533 35.0883 28.2619 34.4097C29.457 33.263 30.9296 32.6875 32.6797 32.6875C34.4297 32.6875 35.8853 33.1814 37.0078 34.1692C38.0067 35.0668 38.6213 36.2521 38.8518 37.7252H35.6292C35.2322 36.192 34.2505 35.4275 32.684 35.4275C31.826 35.4275 31.1431 35.7067 30.6351 36.265C30.315 36.6472 30.1058 37.081 30.0119 37.5663C29.9052 38.1547 29.8497 39.194 29.8497 40.68C29.8497 42.166 29.9052 43.2353 30.0119 43.7937C30.1058 44.309 30.3107 44.7514 30.6351 45.1164C31.1089 45.6619 31.7919 45.9324 32.684 45.9324C33.6358 45.9324 34.3956 45.6404 34.9633 45.0477C35.4542 44.5023 35.6974 43.8022 35.6974 42.9519V42.3549H32.684V39.7953H38.8731V42.0929Z" fill="#224761"/>
<path d="M81.5154 41.938H78.1775V45.8033H81.5154C82.941 45.8033 83.6539 45.1548 83.6539 43.8578C83.6539 42.5608 82.941 41.938 81.5154 41.938ZM81.3105 35.5561H78.1818V39.1765H81.3105C82.7233 39.1765 83.4276 38.5752 83.4276 37.3641C83.4276 36.153 82.7233 35.5518 81.3105 35.5518M85.4509 47.3708C84.546 48.1525 83.3423 48.539 81.8398 48.539H74.9805V32.8203H81.5623C83.1417 32.8203 84.3838 33.2197 85.2887 34.0142C86.1765 34.8088 86.6247 35.8825 86.6247 37.2396C86.6247 38.0341 86.3942 38.747 85.9332 39.3827C85.549 39.8851 85.1051 40.2502 84.5972 40.4864C85.2118 40.7656 85.707 41.1478 86.0911 41.6331C86.5991 42.2816 86.8509 43.0761 86.8509 44.0167C86.8509 45.4468 86.3814 46.5634 85.4466 47.3708" fill="#224761"/>
<path d="M89.1074 48.539V32.8203H102.608V35.5561H92.3087V39.2452H101.482V41.981H92.3087V45.8033H102.608V48.539H89.1074Z" fill="#224761"/>
<path d="M56.2441 32.8203H72.6305V48.539H69.7792V35.891H65.9334V47.4567H63.0821V35.891H59.0997V48.539H56.2441V32.8203Z" fill="#224761"/>
<path d="M34.2502 18.0344L31.2026 26.2717H37.3235L34.2502 18.0344ZM27.0195 29.1191L32.9782 13.4004H35.488L41.4723 29.1191H27.0195Z" fill="#224761"/>
<path d="M123.447 35.5561V48.539H120.246V32.8203H127.729V35.5561H123.447Z" fill="#224761"/>
<path d="M114.752 35.5561V48.539H111.555L111.551 32.8203H119.033V35.5561H114.752Z" fill="#224761"/>
<path d="M110.445 32.8203H104.598V35.5561H110.445V32.8203Z" fill="#224761"/>
<path d="M104.588 29.1191V13.4004H120.974V16.1361H107.785V19.8253H119.843V22.561H107.785V26.3833H120.974V29.1191H104.588Z" fill="#224761"/>
<path d="M47.0686 37.4543L44.0209 45.6916H50.1418L47.0686 37.4543ZM39.8379 48.539L45.7966 32.8203H48.3064L54.2907 48.539H39.8379Z" fill="#224761"/>
<path d="M134.445 37.4543L131.398 45.6916H137.523L134.449 37.4543H134.445ZM127.219 48.539L133.177 32.8203H135.687L141.672 48.539H127.219Z" fill="#224761"/>
</svg>
