<?xml version="1.0" encoding="UTF-8"?>
<svg id="Calque_1" xmlns="http://www.w3.org/2000/svg" xmlns:xlink="http://www.w3.org/1999/xlink" version="1.1" viewBox="0 0 2286.22 2286.22">
  <!-- Generator: Adobe Illustrator 29.1.0, SVG Export Plug-In . SVG Version: 2.1.0 Build 142)  -->
  <defs>
    <style>
      .st0 {
        fill: none;
      }

      .st1 {
        fill: url(#MOTIF_BLANC);
      }

      .st2 {
        fill: #fff;
      }
    </style>
    <pattern id="MOTIF_BLANC" x="0" y="0" width="453.54" height="317.48" patternTransform="translate(-96.95 -1021.21)" patternUnits="userSpaceOnUse" viewBox="0 0 453.54 317.48">
      <g>
        <rect class="st0" width="453.54" height="317.48"/>
        <g>
          <polygon class="st2" points="373.12 221.46 373.12 270.9 361.43 270.9 361.42 211.03 388.75 211.03 388.75 221.46 373.12 221.46"/>
          <rect class="st2" x="336.03" y="211.03" width="21.36" height="10.43"/>
          <path class="st2" d="M326.15,260.05h-22.36l11.14-31.37,11.22,31.37ZM341.31,270.9l-21.86-59.87h-9.16l-21.77,59.87h52.79Z"/>
          <path class="st2" d="M335.47,319.5c0,8.13-1.91,14.21-5.72,18.25-4.48,4.54-10.12,6.81-16.9,6.81-6.39,0-11.77-2.19-16.14-6.56-2.58-2.58-4.2-5.58-4.88-9-.67-3.36-1.01-8.32-1.01-14.88s.34-11.52,1.01-14.88c.67-3.42,2.3-6.42,4.88-9,4.37-4.37,9.75-6.56,16.14-6.56s11.71,1.88,15.8,5.63c3.64,3.42,5.89,7.93,6.72,13.54h-11.77c-1.46-5.83-5.04-8.74-10.76-8.74-3.14,0-5.63,1.06-7.48,3.19-1.18,1.46-1.93,3.11-2.27,4.96-.39,2.24-.59,6.19-.59,11.86s.19,9.73.59,11.86c.34,1.96,1.09,3.64,2.27,5.04,1.74,2.07,4.23,3.11,7.48,3.11,3.48,0,6.25-1.12,8.32-3.36,1.79-2.07,2.69-4.74,2.69-7.99v-2.27h-11.01v-9.75h22.61v8.74Z"/>
          <path class="st2" d="M376.63,333.21h-22.36l11.14-31.37,11.22,31.37ZM391.79,344.06l-21.86-59.87h-9.16l-21.77,59.87h52.79Z"/>
        </g>
        <g>
          <polygon class="st2" points="259.73 261.14 259.73 310.59 248.05 310.59 248.04 250.72 275.37 250.72 275.37 261.14 259.73 261.14"/>
          <rect class="st2" x="222.65" y="250.72" width="21.36" height="10.43"/>
          <path class="st2" d="M212.76,299.74h-22.36l11.14-31.37,11.22,31.37ZM227.93,310.59l-21.86-59.87h-9.16l-21.77,59.87h52.79Z"/>
        </g>
        <g>
          <polygon class="st2" points="146.35 300.83 146.35 350.27 134.66 350.27 134.65 290.4 161.98 290.4 161.98 300.83 146.35 300.83"/>
          <rect class="st2" x="109.26" y="290.4" width="21.36" height="10.43"/>
          <path class="st2" d="M99.38,339.42h-22.36l11.14-31.37,11.22,31.37ZM114.54,350.27l-21.86-59.87h-9.16l-21.77,59.87h52.79Z"/>
        </g>
        <g>
          <polygon class="st2" points="32.96 181.77 32.96 231.22 21.27 231.22 21.27 171.35 48.59 171.35 48.59 181.77 32.96 181.77"/>
          <rect class="st2" x="-4.12" y="171.35" width="21.36" height="10.43"/>
          <path class="st2" d="M-14.01,220.37h-22.36l11.14-31.37,11.22,31.37ZM1.16,231.22l-21.86-59.87h-9.16l-21.77,59.87H1.16Z"/>
          <path class="st2" d="M36.47,293.52H14.11l11.14-31.37,11.22,31.37ZM51.63,304.37l-21.86-59.87h-9.16L-1.16,304.37h52.79Z"/>
        </g>
        <g>
          <rect class="st2" x="449.42" y="171.35" width="21.36" height="10.43"/>
          <path class="st2" d="M439.54,220.37h-22.36l11.14-31.37,11.22,31.37ZM454.7,231.22l-21.86-59.87h-9.16l-21.77,59.87h52.79Z"/>
          <path class="st2" d="M448.86,279.82c0,8.13-1.91,14.21-5.72,18.25-4.48,4.54-10.12,6.81-16.9,6.81-6.39,0-11.77-2.19-16.14-6.56-2.58-2.58-4.2-5.58-4.88-9-.67-3.36-1.01-8.32-1.01-14.88s.34-11.52,1.01-14.88c.67-3.42,2.3-6.42,4.88-9,4.37-4.37,9.75-6.56,16.14-6.56s11.71,1.88,15.8,5.63c3.64,3.42,5.89,7.93,6.72,13.54h-11.77c-1.46-5.83-5.04-8.74-10.76-8.74-3.14,0-5.63,1.06-7.48,3.19-1.18,1.46-1.93,3.11-2.27,4.96-.39,2.24-.59,6.19-.59,11.86s.19,9.73.59,11.86c.34,1.96,1.09,3.64,2.27,5.04,1.74,2.07,4.23,3.11,7.48,3.11,3.48,0,6.25-1.12,8.32-3.36,1.79-2.07,2.69-4.74,2.69-7.99v-2.27h-11.01v-9.75h22.61v8.74Z"/>
          <path class="st2" d="M490.01,293.52h-22.36l11.14-31.37,11.22,31.37ZM505.18,304.37l-21.86-59.87h-9.16l-21.77,59.87h52.79Z"/>
        </g>
        <g>
          <polygon class="st2" points="373.12 62.72 373.12 112.16 361.43 112.16 361.42 52.29 388.75 52.29 388.75 62.72 373.12 62.72"/>
          <rect class="st2" x="336.03" y="52.29" width="21.36" height="10.43"/>
          <path class="st2" d="M326.15,101.31h-22.36l11.14-31.37,11.22,31.37ZM341.31,112.16l-21.86-59.87h-9.16l-21.77,59.87h52.79Z"/>
          <path class="st2" d="M335.47,160.76c0,8.13-1.91,14.21-5.72,18.25-4.48,4.54-10.12,6.81-16.9,6.81-6.39,0-11.77-2.19-16.14-6.56-2.58-2.58-4.2-5.58-4.88-9-.67-3.36-1.01-8.32-1.01-14.88s.34-11.52,1.01-14.88c.67-3.42,2.3-6.42,4.88-9,4.37-4.37,9.75-6.56,16.14-6.56s11.71,1.88,15.8,5.63c3.64,3.42,5.89,7.93,6.72,13.54h-11.77c-1.46-5.83-5.04-8.74-10.76-8.74-3.14,0-5.63,1.06-7.48,3.19-1.18,1.46-1.93,3.11-2.27,4.96-.39,2.24-.59,6.19-.59,11.86s.19,9.73.59,11.86c.34,1.96,1.09,3.64,2.27,5.04,1.74,2.07,4.23,3.11,7.48,3.11,3.48,0,6.25-1.12,8.32-3.36,1.79-2.07,2.69-4.74,2.69-7.99v-2.27h-11.01v-9.75h22.61v8.74Z"/>
          <path class="st2" d="M376.63,174.47h-22.36l11.14-31.37,11.22,31.37ZM391.79,185.32l-21.86-59.87h-9.16l-21.77,59.87h52.79Z"/>
        </g>
        <g>
          <polygon class="st2" points="259.73 102.4 259.73 151.85 248.05 151.85 248.04 91.98 275.37 91.98 275.37 102.4 259.73 102.4"/>
          <rect class="st2" x="222.65" y="91.98" width="21.36" height="10.43"/>
          <path class="st2" d="M212.76,141h-22.36l11.14-31.37,11.22,31.37ZM227.93,151.85l-21.86-59.87h-9.16l-21.77,59.87h52.79Z"/>
          <path class="st2" d="M222.08,200.45c0,8.13-1.91,14.21-5.72,18.25-4.48,4.54-10.12,6.81-16.9,6.81-6.39,0-11.77-2.19-16.14-6.56-2.58-2.58-4.2-5.58-4.88-9-.67-3.36-1.01-8.32-1.01-14.88s.34-11.52,1.01-14.88c.67-3.42,2.3-6.42,4.88-9,4.37-4.37,9.75-6.56,16.14-6.56s11.71,1.88,15.8,5.63c3.64,3.42,5.89,7.93,6.72,13.54h-11.77c-1.46-5.83-5.04-8.74-10.76-8.74-3.14,0-5.63,1.06-7.48,3.19-1.18,1.46-1.93,3.11-2.27,4.96-.39,2.24-.59,6.19-.59,11.86s.19,9.73.59,11.86c.34,1.96,1.09,3.64,2.27,5.04,1.74,2.07,4.23,3.11,7.48,3.11,3.48,0,6.25-1.12,8.32-3.36,1.79-2.07,2.69-4.74,2.69-7.99v-2.27h-11.01v-9.75h22.61v8.74Z"/>
          <path class="st2" d="M263.24,214.15h-22.36l11.14-31.37,11.22,31.37ZM278.41,225l-21.86-59.87h-9.16l-21.77,59.87h52.79Z"/>
        </g>
        <g>
          <polygon class="st2" points="146.35 142.09 146.35 191.53 134.66 191.53 134.65 131.66 161.98 131.66 161.98 142.09 146.35 142.09"/>
          <rect class="st2" x="109.26" y="131.66" width="21.36" height="10.43"/>
          <path class="st2" d="M99.38,180.68h-22.36l11.14-31.37,11.22,31.37ZM114.54,191.53l-21.86-59.87h-9.16l-21.77,59.87h52.79Z"/>
          <path class="st2" d="M108.7,240.13c0,8.13-1.91,14.21-5.72,18.25-4.48,4.54-10.12,6.81-16.9,6.81-6.39,0-11.77-2.19-16.14-6.56-2.58-2.58-4.2-5.58-4.88-9-.67-3.36-1.01-8.32-1.01-14.88s.34-11.52,1.01-14.88c.67-3.42,2.3-6.42,4.88-9,4.37-4.37,9.75-6.56,16.14-6.56s11.71,1.88,15.8,5.63c3.64,3.42,5.89,7.93,6.72,13.54h-11.77c-1.46-5.83-5.04-8.74-10.76-8.74-3.14,0-5.63,1.06-7.48,3.19-1.18,1.46-1.93,3.11-2.27,4.96-.39,2.24-.59,6.19-.59,11.86s.19,9.73.59,11.86c.34,1.96,1.09,3.64,2.27,5.04,1.74,2.07,4.23,3.11,7.48,3.11,3.48,0,6.25-1.12,8.32-3.36,1.79-2.07,2.69-4.74,2.69-7.99v-2.27h-11.01v-9.75h22.61v8.74Z"/>
          <path class="st2" d="M149.85,253.84h-22.36l11.14-31.37,11.22,31.37ZM165.02,264.69l-21.86-59.87h-9.16l-21.77,59.87h52.79Z"/>
        </g>
        <g>
          <polygon class="st2" points="32.96 23.03 32.96 72.48 21.27 72.48 21.27 12.61 48.59 12.61 48.59 23.03 32.96 23.03"/>
          <rect class="st2" x="-4.12" y="12.61" width="21.36" height="10.43"/>
          <path class="st2" d="M-14.01,61.63h-22.36l11.14-31.37,11.22,31.37ZM1.16,72.48L-20.7,12.6h-9.16l-21.77,59.87H1.16Z"/>
          <path class="st2" d="M36.47,134.78H14.11l11.14-31.37,11.22,31.37ZM51.63,145.63l-21.86-59.87h-9.16L-1.16,145.63h52.79Z"/>
        </g>
        <g>
          <rect class="st2" x="449.42" y="12.61" width="21.36" height="10.43"/>
          <path class="st2" d="M439.54,61.63h-22.36l11.14-31.37,11.22,31.37ZM454.7,72.48l-21.86-59.87h-9.16l-21.77,59.87h52.79Z"/>
          <path class="st2" d="M448.86,121.08c0,8.13-1.91,14.21-5.72,18.25-4.48,4.54-10.12,6.81-16.9,6.81-6.39,0-11.77-2.19-16.14-6.56-2.58-2.58-4.2-5.58-4.88-9-.67-3.36-1.01-8.32-1.01-14.88s.34-11.52,1.01-14.88c.67-3.42,2.3-6.42,4.88-9,4.37-4.37,9.75-6.56,16.14-6.56s11.71,1.88,15.8,5.63c3.64,3.42,5.89,7.93,6.72,13.54h-11.77c-1.46-5.83-5.04-8.74-10.76-8.74-3.14,0-5.63,1.06-7.48,3.19-1.18,1.46-1.93,3.11-2.27,4.96-.39,2.24-.59,6.19-.59,11.86s.19,9.73.59,11.86c.34,1.96,1.09,3.64,2.27,5.04,1.74,2.07,4.23,3.11,7.48,3.11,3.48,0,6.25-1.12,8.32-3.36,1.79-2.07,2.69-4.74,2.69-7.99v-2.27h-11.01v-9.75h22.61v8.74Z"/>
          <path class="st2" d="M490.01,134.78h-22.36l11.14-31.37,11.22,31.37ZM505.18,145.63l-21.86-59.87h-9.16l-21.77,59.87h52.79Z"/>
        </g>
        <g>
          <path class="st2" d="M335.47,2.02c0,8.13-1.91,14.21-5.72,18.25-4.48,4.54-10.12,6.81-16.9,6.81-6.39,0-11.77-2.19-16.14-6.56-2.58-2.58-4.2-5.58-4.88-9-.67-3.36-1.01-8.32-1.01-14.88s.34-11.52,1.01-14.88c.67-3.42,2.3-6.42,4.88-9,4.37-4.37,9.75-6.56,16.14-6.56s11.71,1.88,15.8,5.63c3.64,3.42,5.89,7.93,6.72,13.54h-11.77c-1.46-5.83-5.04-8.74-10.76-8.74-3.14,0-5.63,1.06-7.48,3.19-1.18,1.46-1.93,3.11-2.27,4.96-.39,2.24-.59,6.19-.59,11.86s.19,9.73.59,11.86c.34,1.96,1.09,3.64,2.27,5.04,1.74,2.07,4.23,3.11,7.48,3.11,3.48,0,6.25-1.12,8.32-3.36,1.79-2.07,2.69-4.74,2.69-7.99v-2.27h-11.01V-6.72h22.61V2.02Z"/>
          <path class="st2" d="M376.63,15.73h-22.36l11.14-31.37,11.22,31.37ZM391.79,26.58l-21.86-59.87h-9.16l-21.77,59.87h52.79Z"/>
        </g>
        <g>
          <path class="st2" d="M222.08,41.71c0,8.13-1.91,14.21-5.72,18.25-4.48,4.54-10.12,6.81-16.9,6.81-6.39,0-11.77-2.19-16.14-6.56-2.58-2.58-4.2-5.58-4.88-9-.67-3.36-1.01-8.32-1.01-14.88s.34-11.52,1.01-14.88c.67-3.42,2.3-6.42,4.88-9,4.37-4.37,9.75-6.56,16.14-6.56s11.71,1.88,15.8,5.63c3.64,3.42,5.89,7.93,6.72,13.54h-11.77c-1.46-5.83-5.04-8.74-10.76-8.74-3.14,0-5.63,1.06-7.48,3.19-1.18,1.46-1.93,3.11-2.27,4.96-.39,2.24-.59,6.19-.59,11.86s.19,9.73.59,11.86c.34,1.96,1.09,3.64,2.27,5.04,1.74,2.07,4.23,3.11,7.48,3.11,3.48,0,6.25-1.12,8.32-3.36,1.79-2.07,2.69-4.74,2.69-7.99v-2.27h-11.01v-9.75h22.61v8.74Z"/>
          <path class="st2" d="M263.24,55.41h-22.36l11.14-31.37,11.22,31.37ZM278.41,66.26l-21.86-59.87h-9.16l-21.77,59.87h52.79Z"/>
        </g>
        <g>
          <polygon class="st2" points="146.35 -16.65 146.35 32.79 134.66 32.79 134.65 -27.08 161.98 -27.08 161.98 -16.65 146.35 -16.65"/>
          <path class="st2" d="M99.38,21.94h-22.36l11.14-31.37,11.22,31.37ZM114.54,32.79l-21.86-59.87h-9.16l-21.77,59.87h52.79Z"/>
          <path class="st2" d="M108.7,81.39c0,8.13-1.91,14.21-5.72,18.25-4.48,4.54-10.12,6.81-16.9,6.81-6.39,0-11.77-2.19-16.14-6.56-2.58-2.58-4.2-5.58-4.88-9-.67-3.36-1.01-8.32-1.01-14.88s.34-11.52,1.01-14.88c.67-3.42,2.3-6.42,4.88-9,4.37-4.37,9.75-6.56,16.14-6.56s11.71,1.88,15.8,5.63c3.64,3.42,5.89,7.93,6.72,13.54h-11.77c-1.46-5.83-5.04-8.74-10.76-8.74-3.14,0-5.63,1.06-7.48,3.19-1.18,1.46-1.93,3.11-2.27,4.96-.39,2.24-.59,6.19-.59,11.86s.19,9.73.59,11.86c.34,1.96,1.09,3.64,2.27,5.04,1.74,2.07,4.23,3.11,7.48,3.11,3.48,0,6.25-1.12,8.32-3.36,1.79-2.07,2.69-4.74,2.69-7.99v-2.27h-11.01v-9.75h22.61v8.74Z"/>
          <path class="st2" d="M149.85,95.1h-22.36l11.14-31.37,11.22,31.37ZM165.02,105.95l-21.86-59.87h-9.16l-21.77,59.87h52.79Z"/>
        </g>
      </g>
    </pattern>
  </defs>
  <rect class="st1" width="2286.22" height="2286.22"/>
</svg>