<svg width="572" height="606" viewBox="0 0 572 606" fill="none" xmlns="http://www.w3.org/2000/svg">
<g opacity="0.1" clip-path="url(#clip0_1659_884)">
<path d="M444.931 79.3981V275.641H388.606L388.568 38H520.342V79.3981H444.931Z" fill="#F4F4F4"/>
<path d="M369.076 38H266.098V79.3981H369.076V38Z" fill="#F4F4F4"/>
<path d="M164.309 108.089L110.588 232.59H218.439L164.309 108.089ZM37 275.641L141.987 38H186.184L291.58 275.641H37Z" fill="#F4F4F4"/>
<path d="M263.38 468.546C263.38 500.819 254.191 524.948 235.812 540.962C214.197 558.997 187.039 567.999 154.338 567.999C123.534 567.999 97.5659 559.303 76.509 541.972C64.0832 531.745 56.2333 519.834 52.9966 506.27C49.76 492.919 48.123 473.231 48.123 447.204C48.123 421.177 49.76 401.488 52.9966 388.138C56.2333 374.573 64.0832 362.662 76.509 352.435C97.5659 335.074 123.534 326.408 154.338 326.408C185.142 326.408 210.812 333.879 230.53 348.761C248.089 362.325 258.916 380.238 262.971 402.499H206.236C199.205 379.35 181.905 367.806 154.338 367.806C139.196 367.806 127.18 372.032 118.251 380.483C112.559 386.27 108.913 392.823 107.313 400.172C105.416 409.082 104.486 424.759 104.486 447.234C104.486 469.709 105.416 485.846 107.313 494.297C108.95 502.105 112.596 508.75 118.251 514.323C126.621 522.559 138.638 526.662 154.338 526.662C171.079 526.662 184.472 522.223 194.48 513.312C203.111 505.075 207.464 494.512 207.464 481.621V472.618H154.375V433.915H263.417V468.607L263.38 468.546Z" fill="#F4F4F4"/>
<path d="M407.764 398.427L354.043 522.927H461.894L407.764 398.427ZM280.418 565.979L385.405 328.338H429.602L534.998 565.979H280.418Z" fill="#F4F4F4"/>
</g>
<defs>
<clipPath id="clip0_1659_884">
<rect width="498" height="530" fill="white" transform="translate(37 38)"/>
</clipPath>
</defs>
</svg>
